<svg width="12" height="21" viewBox="0 0 12 21" fill="none" xmlns="http://www.w3.org/2000/svg">
<path d="M11.4938 0.517147C11.3347 0.353281 11.1454 0.223217 10.9368 0.134458C10.7283 0.0456982 10.5046 0 10.2786 0C10.0527 0 9.829 0.0456982 9.62044 0.134458C9.41189 0.223217 9.2226 0.353281 9.0635 0.517147L0.506244 9.2587C0.345833 9.42123 0.21851 9.61459 0.131622 9.82764C0.0447343 10.0407 0 10.2692 0 10.5C0 10.7308 0.0447343 10.9593 0.131622 11.1724C0.21851 11.3854 0.345833 11.5788 0.506244 11.7413L9.0635 20.4829C9.2226 20.6467 9.41189 20.7768 9.62044 20.8655C9.829 20.9543 10.0527 21 10.2786 21C10.5046 21 10.7283 20.9543 10.9368 20.8655C11.1454 20.7768 11.3347 20.6467 11.4938 20.4829C11.6542 20.3203 11.7815 20.127 11.8684 19.9139C11.9553 19.7009 12 19.4723 12 19.2416C12 19.0108 11.9553 18.7822 11.8684 18.5692C11.7815 18.3561 11.6542 18.1628 11.4938 18.0003L4.13452 10.5L11.4938 2.99975C11.6542 2.83722 11.7815 2.64386 11.8684 2.43081C11.9553 2.21776 12 1.98925 12 1.75845C12 1.52765 11.9553 1.29914 11.8684 1.08609C11.7815 0.87304 11.6542 0.679675 11.4938 0.517147Z" fill="white"/>
</svg>
