<svg width="14" height="16" viewBox="0 0 14 16" fill="none" xmlns="http://www.w3.org/2000/svg">
<path d="M12.4444 14.4H1.80556C1.66748 14.4 1.55556 14.2881 1.55556 14.15V5.85C1.55556 5.71193 1.66748 5.6 1.80556 5.6H12.4444M10.1111 0V1.35C10.1111 1.48807 9.99918 1.6 9.86111 1.6H4.13889C4.00082 1.6 3.88889 1.48807 3.88889 1.35V0.25C3.88889 0.111929 3.77696 0 3.63889 0H2.58333C2.44526 0 2.33333 0.111929 2.33333 0.25V1.35C2.33333 1.48807 2.2214 1.6 2.08333 1.6H1.55556C0.692222 1.6 0 2.312 0 3.2V14.4C0 14.8243 0.163888 15.2313 0.455612 15.5314C0.747335 15.8314 1.143 16 1.55556 16H12.4444C12.857 16 13.2527 15.8314 13.5444 15.5314C13.8361 15.2313 14 14.8243 14 14.4V3.2C14 2.77565 13.8361 2.36869 13.5444 2.06863C13.2527 1.76857 12.857 1.6 12.4444 1.6H11.9167C11.7786 1.6 11.6667 1.48807 11.6667 1.35V0M10.8889 9.05C10.8889 8.91193 10.777 8.8 10.6389 8.8H7.25C7.11193 8.8 7 8.91193 7 9.05V12.55C7 12.6881 7.11193 12.8 7.25 12.8H10.6389C10.777 12.8 10.8889 12.6881 10.8889 12.55V9.05Z" fill="white"/>
</svg>
