<svg width="21" height="21" viewBox="0 0 21 21" fill="none" xmlns="http://www.w3.org/2000/svg">
<path d="M10.25 4.75V10.25L13.6942 14.75M19.25 10.25C19.25 11.4319 19.0172 12.6022 18.5649 13.6942C18.1126 14.7861 17.4497 15.7782 16.614 16.614C15.7782 17.4497 14.7861 18.1126 13.6942 18.5649C12.6022 19.0172 11.4319 19.25 10.25 19.25C9.0681 19.25 7.89778 19.0172 6.80585 18.5649C5.71392 18.1126 4.72177 17.4497 3.88604 16.614C3.05031 15.7782 2.38738 14.7861 1.93508 13.6942C1.48279 12.6022 1.25 11.4319 1.25 10.25C1.25 7.86305 2.19821 5.57387 3.88604 3.88604C5.57387 2.19821 7.86305 1.25 10.25 1.25C12.6369 1.25 14.9261 2.19821 16.614 3.88604C18.3018 5.57387 19.25 7.86305 19.25 10.25Z" stroke="white" stroke-width="2.5" stroke-linejoin="round"/>
</svg>
