<svg width="47" height="39" viewBox="0 0 47 39" fill="none" xmlns="http://www.w3.org/2000/svg">
<path d="M38.2562 30.7691C38.2564 30.7685 38.2558 30.7679 38.2552 30.768L29.7081 32.4797C22.9325 33.8359 15.8962 32.606 9.98367 29.0306L4.67156 25.818C4.47157 25.697 4.50534 25.3973 4.72722 25.3238L14.7587 22.0041C19.2586 20.5141 24.1951 21.2049 28.1147 23.8718L38.2548 30.7697C38.2554 30.77 38.2561 30.7697 38.2562 30.7691Z" fill="white" stroke="#D300FF" stroke-width="2.65547" stroke-miterlimit="10"/>
<path d="M22.7156 33.0309C25.5868 33.6229 28.3943 31.7752 28.9863 28.9039C29.5783 26.0327 27.7306 23.2252 24.8594 22.6332C21.9881 22.0412 19.1806 23.8889 18.5886 26.7601C17.9966 29.6314 19.8443 32.4389 22.7156 33.0309Z" fill="#D300FF"/>
<path d="M11.0962 17.0237C10.3921 15.8174 11.2039 15.3231 10.497 14.1163C9.79287 12.9101 8.98372 13.405 8.27955 12.1988C7.57539 10.9926 8.38454 10.4976 7.68092 9.28867C6.9773 8.0797 6.16492 8.57682 5.46075 7.37061" stroke="#D300FF" stroke-width="2.09924" stroke-miterlimit="10" stroke-linecap="round"/>
<path d="M21.7771 15.0557C21.8641 13.6542 22.8051 13.717 22.8916 12.3182C22.9787 10.9167 22.035 10.8534 22.1188 9.45406C22.2027 8.05474 23.1469 8.11531 23.234 6.71381C23.321 5.31232 22.3774 5.24899 22.4617 3.84692" stroke="#D300FF" stroke-width="2.09924" stroke-miterlimit="10" stroke-linecap="round"/>
<path d="M31.38 19.0568C32.3796 18.0985 33.0269 18.8059 34.0238 17.847C35.0234 16.8887 34.3761 16.1813 35.3731 15.2224C36.3727 14.2641 37.0199 14.9715 38.0168 14.0126C39.0164 13.0543 38.3692 12.3469 39.3661 11.388" stroke="#D300FF" stroke-width="2.09924" stroke-miterlimit="10" stroke-linecap="round"/>
</svg>
